<mxfile host="Electron" modified="2024-04-24T10:25:16.460Z" agent="Mozilla/5.0 (Windows NT 10.0; Win64; x64) AppleWebKit/537.36 (KHTML, like Gecko) draw.io/24.1.0 Chrome/120.0.6099.109 Electron/28.1.0 Safari/537.36" etag="whKW17VXag9iO4YHbsNJ" version="24.1.0" type="device">
  <diagram name="Page-1" id="uDSp3NLsImSlfOM2CZwq">
    <mxGraphModel dx="981" dy="563" grid="1" gridSize="10" guides="1" tooltips="1" connect="1" arrows="1" fold="1" page="1" pageScale="1" pageWidth="827" pageHeight="1169" math="0" shadow="0">
      <root>
        <mxCell id="0" />
        <mxCell id="1" parent="0" />
        <mxCell id="Ti4Q4SszKWdOWZy4-kIw-1" value="LAN&lt;div&gt;Hardware&lt;/div&gt;" style="ellipse;shape=cloud;whiteSpace=wrap;html=1;sketch=1;hachureGap=4;jiggle=2;curveFitting=1;fontFamily=Architects Daughter;fontSource=https%3A%2F%2Ffonts.googleapis.com%2Fcss%3Ffamily%3DArchitects%2BDaughter;" vertex="1" parent="1">
          <mxGeometry x="200" y="350" width="120" height="80" as="geometry" />
        </mxCell>
        <mxCell id="Ti4Q4SszKWdOWZy4-kIw-19" value="" style="edgeStyle=orthogonalEdgeStyle;rounded=0;sketch=1;hachureGap=4;jiggle=2;curveFitting=1;orthogonalLoop=1;jettySize=auto;html=1;fontFamily=Architects Daughter;fontSource=https%3A%2F%2Ffonts.googleapis.com%2Fcss%3Ffamily%3DArchitects%2BDaughter;" edge="1" parent="1" source="Ti4Q4SszKWdOWZy4-kIw-2" target="Ti4Q4SszKWdOWZy4-kIw-3">
          <mxGeometry relative="1" as="geometry">
            <mxPoint x="140" y="660" as="targetPoint" />
          </mxGeometry>
        </mxCell>
        <mxCell id="Ti4Q4SszKWdOWZy4-kIw-2" value="LAN&lt;div&gt;SDN&lt;/div&gt;&lt;div&gt;10.233.8.1-2&lt;/div&gt;" style="ellipse;shape=cloud;whiteSpace=wrap;html=1;sketch=1;hachureGap=4;jiggle=2;curveFitting=1;fontFamily=Architects Daughter;fontSource=https%3A%2F%2Ffonts.googleapis.com%2Fcss%3Ffamily%3DArchitects%2BDaughter;" vertex="1" parent="1">
          <mxGeometry x="80" y="600" width="120" height="80" as="geometry" />
        </mxCell>
        <mxCell id="Ti4Q4SszKWdOWZy4-kIw-3" value="Polaris-1&lt;div&gt;10.233.8.1&lt;br&gt;&lt;/div&gt;&lt;div&gt;&lt;span style=&quot;font-size: 11px; text-wrap: nowrap; background-color: rgb(24, 20, 29);&quot;&gt;Acast 10.235.7.18 ACOD (best)&lt;/span&gt;&lt;br&gt;&lt;/div&gt;&lt;div&gt;&lt;span style=&quot;font-size: 11px; text-wrap: nowrap; background-color: rgb(24, 20, 29);&quot;&gt;Acast 10.235.7.19 ACOD (worts)&lt;/span&gt;&lt;span style=&quot;font-size: 11px; text-wrap: nowrap; background-color: rgb(24, 20, 29);&quot;&gt;&lt;br&gt;&lt;/span&gt;&lt;/div&gt;" style="rounded=0;whiteSpace=wrap;html=1;sketch=1;hachureGap=4;jiggle=2;curveFitting=1;fontFamily=Architects Daughter;fontSource=https%3A%2F%2Ffonts.googleapis.com%2Fcss%3Ffamily%3DArchitects%2BDaughter;fillColor=#0050ef;fontColor=#ffffff;strokeColor=#001DBC;" vertex="1" parent="1">
          <mxGeometry x="80" y="770" width="120" height="60" as="geometry" />
        </mxCell>
        <mxCell id="Ti4Q4SszKWdOWZy4-kIw-4" value="Polaris-2&lt;div&gt;10.233.8.2&lt;br&gt;&lt;/div&gt;&lt;div&gt;Acast&amp;nbsp;&lt;span style=&quot;background-color: rgb(24, 20, 29); font-size: 11px; text-wrap: nowrap;&quot;&gt;10.235.7.18 PR (worts)&lt;/span&gt;&lt;/div&gt;&lt;div&gt;&lt;span style=&quot;font-size: 11px; text-wrap: nowrap; background-color: rgb(24, 20, 29);&quot;&gt;Acast 10.235.7.19 PR (best)&lt;/span&gt;&lt;span style=&quot;background-color: rgb(24, 20, 29); font-size: 11px; text-wrap: nowrap;&quot;&gt;&lt;br&gt;&lt;/span&gt;&lt;/div&gt;" style="rounded=0;whiteSpace=wrap;html=1;sketch=1;hachureGap=4;jiggle=2;curveFitting=1;fontFamily=Architects Daughter;fontSource=https%3A%2F%2Ffonts.googleapis.com%2Fcss%3Ffamily%3DArchitects%2BDaughter;fillColor=#0050ef;fontColor=#ffffff;strokeColor=#001DBC;" vertex="1" parent="1">
          <mxGeometry x="280" y="770" width="120" height="60" as="geometry" />
        </mxCell>
        <mxCell id="Ti4Q4SszKWdOWZy4-kIw-5" value="Reflector-1&lt;div&gt;10.234.9.1&lt;/div&gt;" style="rounded=0;whiteSpace=wrap;html=1;sketch=1;hachureGap=4;jiggle=2;curveFitting=1;fontFamily=Architects Daughter;fontSource=https%3A%2F%2Ffonts.googleapis.com%2Fcss%3Ffamily%3DArchitects%2BDaughter;fillColor=#60a917;fontColor=#ffffff;strokeColor=#2D7600;" vertex="1" parent="1">
          <mxGeometry x="400" y="480" width="120" height="60" as="geometry" />
        </mxCell>
        <mxCell id="Ti4Q4SszKWdOWZy4-kIw-6" value="Reflector-2&lt;div&gt;10.234.9.2&lt;br&gt;&lt;/div&gt;" style="rounded=0;whiteSpace=wrap;html=1;sketch=1;hachureGap=4;jiggle=2;curveFitting=1;fontFamily=Architects Daughter;fontSource=https%3A%2F%2Ffonts.googleapis.com%2Fcss%3Ffamily%3DArchitects%2BDaughter;fillColor=#60a917;fontColor=#ffffff;strokeColor=#2D7600;" vertex="1" parent="1">
          <mxGeometry x="400" y="555" width="120" height="60" as="geometry" />
        </mxCell>
        <mxCell id="Ti4Q4SszKWdOWZy4-kIw-7" value="" style="endArrow=none;html=1;rounded=0;sketch=1;hachureGap=4;jiggle=2;curveFitting=1;fontFamily=Architects Daughter;fontSource=https%3A%2F%2Ffonts.googleapis.com%2Fcss%3Ffamily%3DArchitects%2BDaughter;entryX=0;entryY=0.5;entryDx=0;entryDy=0;" edge="1" parent="1" source="Ti4Q4SszKWdOWZy4-kIw-16" target="Ti4Q4SszKWdOWZy4-kIw-5">
          <mxGeometry width="50" height="50" relative="1" as="geometry">
            <mxPoint x="350" y="700" as="sourcePoint" />
            <mxPoint x="400" y="650" as="targetPoint" />
          </mxGeometry>
        </mxCell>
        <mxCell id="Ti4Q4SszKWdOWZy4-kIw-8" value="" style="endArrow=none;html=1;rounded=0;sketch=1;hachureGap=4;jiggle=2;curveFitting=1;fontFamily=Architects Daughter;fontSource=https%3A%2F%2Ffonts.googleapis.com%2Fcss%3Ffamily%3DArchitects%2BDaughter;entryX=0.008;entryY=0.407;entryDx=0;entryDy=0;entryPerimeter=0;" edge="1" parent="1" source="Ti4Q4SszKWdOWZy4-kIw-16" target="Ti4Q4SszKWdOWZy4-kIw-6">
          <mxGeometry width="50" height="50" relative="1" as="geometry">
            <mxPoint x="318" y="474" as="sourcePoint" />
            <mxPoint x="410" y="520" as="targetPoint" />
          </mxGeometry>
        </mxCell>
        <mxCell id="Ti4Q4SszKWdOWZy4-kIw-10" value="" style="endArrow=none;html=1;rounded=0;sketch=1;hachureGap=4;jiggle=2;curveFitting=1;fontFamily=Architects Daughter;fontSource=https%3A%2F%2Ffonts.googleapis.com%2Fcss%3Ffamily%3DArchitects%2BDaughter;" edge="1" parent="1" source="Ti4Q4SszKWdOWZy4-kIw-4" target="Ti4Q4SszKWdOWZy4-kIw-2">
          <mxGeometry width="50" height="50" relative="1" as="geometry">
            <mxPoint x="160" y="770" as="sourcePoint" />
            <mxPoint x="239" y="684" as="targetPoint" />
          </mxGeometry>
        </mxCell>
        <mxCell id="Ti4Q4SszKWdOWZy4-kIw-11" value="bgp mp&lt;div&gt;next-hop&lt;/div&gt;&lt;div&gt;10.233.8.1&lt;/div&gt;" style="endArrow=none;dashed=1;html=1;rounded=0;sketch=1;hachureGap=4;jiggle=2;curveFitting=1;fontFamily=Architects Daughter;fontSource=https%3A%2F%2Ffonts.googleapis.com%2Fcss%3Ffamily%3DArchitects%2BDaughter;" edge="1" parent="1" source="Ti4Q4SszKWdOWZy4-kIw-3" target="Ti4Q4SszKWdOWZy4-kIw-6">
          <mxGeometry width="50" height="50" relative="1" as="geometry">
            <mxPoint x="340" y="690" as="sourcePoint" />
            <mxPoint x="390" y="640" as="targetPoint" />
          </mxGeometry>
        </mxCell>
        <mxCell id="Ti4Q4SszKWdOWZy4-kIw-12" value="bgp mp&lt;div&gt;next-hop&lt;/div&gt;&lt;div&gt;10.233.8.1&lt;/div&gt;" style="endArrow=none;dashed=1;html=1;rounded=0;sketch=1;hachureGap=4;jiggle=2;curveFitting=1;fontFamily=Architects Daughter;fontSource=https%3A%2F%2Ffonts.googleapis.com%2Fcss%3Ffamily%3DArchitects%2BDaughter;entryX=0.013;entryY=0.577;entryDx=0;entryDy=0;entryPerimeter=0;" edge="1" parent="1" source="Ti4Q4SszKWdOWZy4-kIw-3" target="Ti4Q4SszKWdOWZy4-kIw-5">
          <mxGeometry width="50" height="50" relative="1" as="geometry">
            <mxPoint x="205" y="770" as="sourcePoint" />
            <mxPoint x="425" y="625" as="targetPoint" />
          </mxGeometry>
        </mxCell>
        <mxCell id="Ti4Q4SszKWdOWZy4-kIw-13" value="10.235.7.18&lt;div&gt;&lt;div&gt;next-hop&lt;/div&gt;&lt;div&gt;10.233.8.1&lt;/div&gt;&lt;/div&gt;&lt;div&gt;10.233.8.2&lt;br&gt;&lt;/div&gt;" style="endArrow=none;dashed=1;html=1;rounded=0;sketch=1;hachureGap=4;jiggle=2;curveFitting=1;fontFamily=Architects Daughter;fontSource=https%3A%2F%2Ffonts.googleapis.com%2Fcss%3Ffamily%3DArchitects%2BDaughter;" edge="1" parent="1" source="Ti4Q4SszKWdOWZy4-kIw-5" target="Ti4Q4SszKWdOWZy4-kIw-1">
          <mxGeometry x="0.0037" width="50" height="50" relative="1" as="geometry">
            <mxPoint x="187" y="770" as="sourcePoint" />
            <mxPoint x="412" y="525" as="targetPoint" />
            <mxPoint as="offset" />
          </mxGeometry>
        </mxCell>
        <mxCell id="Ti4Q4SszKWdOWZy4-kIw-14" value="IN NS&amp;nbsp;&lt;span style=&quot;font-size: 11px; text-wrap: nowrap; background-color: rgb(24, 20, 29);&quot;&gt;10.235.7.18&lt;/span&gt;" style="text;html=1;align=center;verticalAlign=middle;whiteSpace=wrap;rounded=0;fontFamily=Architects Daughter;fontSource=https%3A%2F%2Ffonts.googleapis.com%2Fcss%3Ffamily%3DArchitects%2BDaughter;" vertex="1" parent="1">
          <mxGeometry x="105" y="375" width="90" height="30" as="geometry" />
        </mxCell>
        <mxCell id="Ti4Q4SszKWdOWZy4-kIw-16" value="LF-25-1\2&lt;div&gt;nei x.x.x.x rr-client&lt;/div&gt;" style="rounded=1;whiteSpace=wrap;html=1;sketch=1;hachureGap=4;jiggle=2;curveFitting=1;fontFamily=Architects Daughter;fontSource=https%3A%2F%2Ffonts.googleapis.com%2Fcss%3Ffamily%3DArchitects%2BDaughter;fillColor=#d80073;fontColor=#ffffff;strokeColor=#A50040;" vertex="1" parent="1">
          <mxGeometry x="160" y="440" width="120" height="60" as="geometry" />
        </mxCell>
        <mxCell id="Ti4Q4SszKWdOWZy4-kIw-17" value="next-hop no change" style="text;html=1;align=center;verticalAlign=middle;whiteSpace=wrap;rounded=0;fontFamily=Architects Daughter;fontSource=https%3A%2F%2Ffonts.googleapis.com%2Fcss%3Ffamily%3DArchitects%2BDaughter;" vertex="1" parent="1">
          <mxGeometry x="450" y="420" width="60" height="30" as="geometry" />
        </mxCell>
        <mxCell id="Ti4Q4SszKWdOWZy4-kIw-21" value="" style="endArrow=none;html=1;rounded=0;sketch=1;hachureGap=4;jiggle=2;curveFitting=1;fontFamily=Architects Daughter;fontSource=https%3A%2F%2Ffonts.googleapis.com%2Fcss%3Ffamily%3DArchitects%2BDaughter;" edge="1" parent="1" source="Ti4Q4SszKWdOWZy4-kIw-2" target="Ti4Q4SszKWdOWZy4-kIw-16">
          <mxGeometry width="50" height="50" relative="1" as="geometry">
            <mxPoint x="340" y="640" as="sourcePoint" />
            <mxPoint x="390" y="590" as="targetPoint" />
          </mxGeometry>
        </mxCell>
        <mxCell id="Ti4Q4SszKWdOWZy4-kIw-23" value="&lt;h1 style=&quot;margin-top: 0px;&quot;&gt;routing on SDC\LAN&lt;/h1&gt;&lt;p&gt;&amp;gt; 10.235.7.18 -&amp;gt; 10.233.8.1&lt;/p&gt;&lt;p&gt;&amp;gt; 10.235.7.18 -&amp;gt; 10.233.8.2&lt;br&gt;&lt;/p&gt;" style="text;html=1;whiteSpace=wrap;overflow=hidden;rounded=0;fontFamily=Architects Daughter;fontSource=https%3A%2F%2Ffonts.googleapis.com%2Fcss%3Ffamily%3DArchitects%2BDaughter;" vertex="1" parent="1">
          <mxGeometry x="400" y="640" width="297" height="120" as="geometry" />
        </mxCell>
      </root>
    </mxGraphModel>
  </diagram>
</mxfile>
